<?xml version="1.0" encoding="utf-8"?>
<!-- Generator: Adobe Illustrator 16.0.0, SVG Export Plug-In . SVG Version: 6.00 Build 0)  -->
<!DOCTYPE svg PUBLIC "-//W3C//DTD SVG 1.1//EN" "http://www.w3.org/Graphics/SVG/1.1/DTD/svg11.dtd">
<svg version="1.1" id="Layer_1" xmlns="http://www.w3.org/2000/svg" xmlns:xlink="http://www.w3.org/1999/xlink" x="0px" y="0px"
	 width="164px" height="164px" viewBox="0 0 164 164" enable-background="new 0 0 164 164" xml:space="preserve">
<g id="A1-building">
	<polygon id="XMLID_5993_" fill="#D2C7B0" points="91,103.7 119.3,87.3 91,71 62.6,87.3 	"/>
	<g id="XMLID_3_">
		<polygon id="XMLID_5992_" fill="#AD856A" points="91,120.1 91,103.7 91,103.7 105.1,95.5 119.3,87.3 119.3,103.7 119.3,103.7 
			105.1,111.9 		"/>
		<g id="Door_11_">
			<defs>
				<polygon id="XMLID_5963_" points="76.8,111.9 91,120.1 91,103.7 76.8,95.5 				"/>
			</defs>
			<clipPath id="XMLID_10_">
				<use xlink:href="#XMLID_5963_"  overflow="visible"/>
			</clipPath>
			<g id="XMLID_5964_" clip-path="url(#XMLID_10_)">
				<g id="XMLID_5981_">
					<g id="XMLID_5984_">
						<g id="XMLID_5985_">
							<g id="XMLID_5986_">
								<g id="XMLID_5987_">
									<g id="XMLID_5988_">
										<g id="XMLID_5989_">
											<polygon id="XMLID_5991_" fill="none" points="81.1,102 81.1,114.3 86.6,117.5 86.6,105.2 											"/>
											<polygon id="XMLID_5990_" fill="#544129" points="81.1,101.1 80.1,100.5 80.1,113.8 80.7,114.1 81.1,114.3 81.1,102 
												86.6,105.2 86.6,117.5 87,117.8 87.6,118.1 87.6,116.8 87.7,104.8 											"/>
										</g>
									</g>
								</g>
							</g>
						</g>
					</g>
					<g id="XMLID_5982_">
						<polygon id="XMLID_5983_" fill="none" points="81.1,102 81.1,114.3 86.6,117.5 86.6,105.2 						"/>
					</g>
				</g>
				<g id="XMLID_5965_">
					<g id="XMLID_5968_">
						<polygon id="XMLID_5980_" fill="#60462F" points="86.6,117.5 81.1,114.3 81.1,101.9 86.6,105.2 						"/>
						<polygon id="XMLID_5979_" opacity="0.1" points="86.6,117.5 81.1,114.3 81.1,102 86.6,105.2 						"/>
						<g id="XMLID_5969_">
							<g id="XMLID_5972_">
								<g id="XMLID_5973_">
									<g id="XMLID_5974_">
										<g id="XMLID_5975_">
											<g id="XMLID_5976_">
												<g id="XMLID_5977_">
													<polygon id="XMLID_5978_" fill="none" points="81.1,102 81.1,114.3 86.6,117.5 86.6,105.2 													"/>
												</g>
											</g>
										</g>
									</g>
								</g>
							</g>
							<g id="XMLID_5970_">
								<polygon id="XMLID_5971_" fill="none" points="81.1,102 81.1,114.3 86.6,117.5 86.6,105.2 								"/>
							</g>
						</g>
					</g>
					<polygon id="XMLID_5967_" opacity="0.1" points="81.1,101.1 80.1,100.5 80.1,113.8 81.1,114.3 81.1,102 86.6,105.2 86.6,117.5 
						87.6,118.1 87.6,116.8 87.7,104.8 					"/>
					<polygon id="XMLID_5966_" opacity="0.3" points="81.1,102 81.1,114.3 81.5,114.6 81.5,102.2 					"/>
				</g>
			</g>
		</g>
		<polygon id="XMLID_5962_" fill="#D4AB90" points="62.6,103.7 91,120.1 91,103.7 62.6,87.3 		"/>
		<polygon id="XMLID_5961_" fill="#AD856A" points="91,120.1 91,103.7 91,103.7 105.1,95.5 119.3,87.3 119.3,103.7 119.3,103.7 
			105.1,111.9 		"/>
		<g id="XMLID_5950_">
			<polygon id="XMLID_5960_" fill="none" points="76.8,95.5 76.8,111.9 76.8,111.9 91,120.1 91,103.7 91,103.7 			"/>
			<polygon id="XMLID_5959_" fill="#B68E72" points="88.6,102.3 88.6,104.3 91,105.7 91,103.7 			"/>
			<polygon id="XMLID_5958_" fill="#B68E72" points="86.3,105.7 90.3,108.1 90.3,106.1 86.3,103.7 			"/>
			<polygon id="XMLID_5957_" fill="#B68E72" points="86.3,116.7 90.3,119 90.3,117 86.3,114.7 			"/>
			<polygon id="XMLID_5956_" fill="#B68E72" points="81.5,113.9 85.6,116.3 85.6,114.3 81.5,111.9 			"/>
			<polyline id="XMLID_5955_" fill="#B68E72" points="80.8,113.6 80.8,111.6 76.8,109.2 76.8,111.2 			"/>
			<polygon id="XMLID_5954_" fill="#B68E72" points="81.5,108.5 85.6,110.8 85.6,108.8 81.5,106.5 			"/>
			<polygon id="XMLID_5953_" fill="#B68E72" points="80.8,106.1 76.8,103.7 76.8,105.7 80.8,108.1 			"/>
			<polygon id="XMLID_5952_" fill="#B68E72" points="88.6,115.3 91,116.7 91,114.7 88.6,113.3 			"/>
			<polygon id="XMLID_5951_" fill="#B68E72" points="88.6,109.9 91,111.2 91,109.2 88.6,107.9 			"/>
		</g>
		<g id="XMLID_5923_">
			<g id="XMLID_5927_">
				<polygon id="XMLID_5949_" fill="#90674C" points="94,102 98,99.7 98.1,99.6 98.1,101.6 94,104 				"/>
				<polygon id="XMLID_5948_" fill="#90674C" points="93.3,102.3 93.3,104.3 91,105.7 91,103.7 				"/>
				<polygon id="XMLID_5947_" fill="#90674C" points="95.7,105.7 91.6,108.1 91.6,106.1 95.7,103.7 				"/>
				<polygon id="XMLID_5946_" fill="#90674C" points="95.7,116.7 91.6,119 91.6,117 95.7,114.7 				"/>
				<polygon id="XMLID_5945_" fill="#90674C" points="101.1,111.5 105.1,109.2 105.1,111.2 101.1,113.5 				"/>
				<polygon id="XMLID_5944_" fill="#90674C" points="95.7,111.2 91.6,113.5 91.6,111.5 95.7,109.2 				"/>
				<polygon id="XMLID_5940_" fill="#90674C" points="93.3,115.3 91,116.7 91,114.7 93.3,113.3 				"/>
				<polygon id="XMLID_5939_" fill="#90674C" points="103.5,107.5 105.1,106.5 105.1,108.5 103.5,109.5 				"/>
				<polygon id="XMLID_5928_" fill="#90674C" points="93.3,109.9 91,111.2 91,109.2 93.3,107.9 				"/>
			</g>
		</g>
		<g id="XMLID_5912_">
			<g id="XMLID_5913_">
				<polygon id="XMLID_5921_" fill="#90674C" points="117.6,88.3 119.3,87.3 119.3,89.3 117.6,90.3 				"/>
				<polygon id="XMLID_5920_" fill="#90674C" points="112.9,91 115.9,89.3 117,88.7 117,90.7 112.9,93 				"/>
				<polygon id="XMLID_5919_" fill="#90674C" points="114.6,94.8 110.5,97.1 110.5,95.1 114.6,92.8 				"/>
				<polygon id="XMLID_5918_" fill="#90674C" points="115.3,92.4 119.3,90.1 119.3,92.1 115.3,94.4 				"/>
				<polygon id="XMLID_5917_" fill="#90674C" points="109.9,108.5 105.8,110.8 105.8,108.8 109.9,106.5 				"/>
				<polygon id="XMLID_5916_" fill="#90674C" points="115.3,97.9 119.3,95.6 119.3,97.6 115.3,99.9 				"/>
				<polygon id="XMLID_5915_" fill="#90674C" points="117.7,99.3 119.3,98.3 119.3,100.3 117.7,101.3 				"/>
				<polygon id="XMLID_5914_" fill="#90674C" points="117.7,93.8 119.3,92.8 119.3,94.8 117.7,95.8 				"/>
			</g>
		</g>
		<g id="XMLID_5903_">
			<polygon id="XMLID_5911_" fill="#B68E72" points="64.3,88.3 62.6,87.3 62.6,89.3 64.3,90.3 			"/>
			<polygon id="XMLID_5910_" fill="#B68E72" points="69,91 66.1,89.3 65,88.7 65,90.7 69,93 			"/>
			<polygon id="XMLID_5909_" fill="#B68E72" points="67.3,94.8 71.4,97.1 71.4,95.1 67.3,92.8 			"/>
			<polygon id="XMLID_5908_" fill="#B68E72" points="72.1,97.5 76.2,99.9 76.2,97.9 72.1,95.5 			"/>
			<polygon id="XMLID_5907_" fill="#B68E72" points="66.7,92.4 62.6,90.1 62.6,92.1 66.7,94.4 			"/>
			<polygon id="XMLID_5906_" fill="#B68E72" points="66.7,103.4 62.6,101 62.6,103 66.7,105.4 			"/>
			<polygon id="XMLID_5905_" fill="#B68E72" points="64.3,99.3 62.6,98.3 62.6,100.3 64.3,101.3 			"/>
			<polygon id="XMLID_5904_" fill="#B68E72" points="64.3,93.8 62.6,92.8 62.6,94.8 64.3,95.8 			"/>
		</g>
		<polyline id="XMLID_5902_" fill="#B68E72" points="78.5,109.5 78.5,107.5 74.5,105.2 74.5,107.2 		"/>
		<polygon id="XMLID_5901_" fill="#B68E72" points="78.5,96.5 74.5,94.2 74.5,94.2 74.5,96.2 78.5,98.5 		"/>
		<g id="Door_10_">
			<g id="XMLID_5_">
				<g id="XMLID_5890_">
					<g id="XMLID_5893_">
						<g id="XMLID_5894_">
							<g id="XMLID_5895_">
								<g id="XMLID_5896_">
									<g id="XMLID_5897_">
										<g id="XMLID_5898_">
											<polygon id="XMLID_5900_" fill="none" points="66.9,93.8 66.9,106.1 72.4,109.3 72.5,97 											"/>
											<polygon id="XMLID_5899_" fill="#544129" points="66.9,92.9 65.9,92.3 65.9,105.6 66.5,105.9 66.9,106.1 66.9,93.8 
												72.5,97 72.4,109.3 72.8,109.6 73.4,109.9 73.4,108.6 73.5,96.6 											"/>
										</g>
									</g>
								</g>
							</g>
						</g>
					</g>
					<g id="XMLID_5891_">
						<polygon id="XMLID_5892_" fill="none" points="66.9,93.8 66.9,106.1 72.4,109.3 72.5,97 						"/>
					</g>
				</g>
				<g id="XMLID_6_">
					<g id="XMLID_9_">
						<polygon id="XMLID_5889_" fill="#60462F" points="72.4,109.3 66.9,106.1 66.9,93.7 72.5,97 						"/>
						<polygon id="XMLID_5888_" opacity="0.1" points="72.4,109.3 66.9,106.1 66.9,93.8 72.5,97 						"/>
						<g id="XMLID_5878_">
							<g id="XMLID_5881_">
								<g id="XMLID_5882_">
									<g id="XMLID_5883_">
										<g id="XMLID_5884_">
											<g id="XMLID_5885_">
												<g id="XMLID_5886_">
													<polygon id="XMLID_5887_" fill="none" points="66.9,93.8 66.9,106.1 72.4,109.3 72.5,97 													"/>
												</g>
											</g>
										</g>
									</g>
								</g>
							</g>
							<g id="XMLID_5879_">
								<polygon id="XMLID_5880_" fill="none" points="66.9,93.8 66.9,106.1 72.4,109.3 72.5,97 								"/>
							</g>
						</g>
					</g>
					<polygon id="XMLID_7_" opacity="0.1" points="66.9,92.9 65.9,92.3 65.9,105.6 66.9,106.1 66.9,93.8 72.5,97 72.4,109.3 
						73.4,109.9 73.4,108.6 73.5,96.6 					"/>
					<polygon id="XMLID_5994_" opacity="0.3" points="66.9,93.8 66.9,106.1 67.3,106.4 67.3,94 					"/>
				</g>
			</g>
		</g>
	</g>
</g>
<g id="A1-windows">
	<g id="XMLID_7734_">
		<g id="XMLID_7735_">
			<g id="XMLID_7772_">
				<g id="XMLID_7802_">
					<g id="XMLID_7807_">
						<g id="XMLID_7808_">
							<g id="XMLID_7809_">
								<g id="XMLID_7810_">
									<g id="XMLID_7813_">
										<g id="XMLID_7819_">
											<g id="XMLID_7828_">
												<polygon fill="#78D5FB" points="105.1,107.1 112.2,102.8 112.2,94.5 105.1,98.8 												"/>
											</g>
											<g id="XMLID_7822_">
												<polygon id="XMLID_7827_" fill="#78D5FB" points="108.7,104.7 111.5,103.1 111.5,95.2 108.7,96.8 												"/>
												<path id="XMLID_7826_" opacity="0.2" d="M108.7,96.8l2.7-1.6v7.9l-1.7,1c0-2,0.7-3.5,0.7-3.5
													C109,100.7,108.7,96.8,108.7,96.8z"/>
												<g id="XMLID_7823_" opacity="0.6">
													<path id="XMLID_7825_" fill="#C6C6C6" d="M109.4,96.4l2.1-1.2v7.9l-1.3,0.7c0-2,0.5-3.4,0.5-3.4
														C109.6,100.4,109.4,96.4,109.4,96.4z"/>
													<path id="XMLID_7824_" fill="#FFFFFF" d="M109.5,96.3l1.9-1.1v7.9l-1.2,0.7c0-2,0.5-3.4,0.5-3.4
														C109.7,100.3,109.5,96.3,109.5,96.3z"/>
												</g>
											</g>
											<g id="XMLID_7820_">
												<polygon id="XMLID_7821_" fill="#78D5FB" points="108.4,104.9 105.3,106.6 105.3,98.8 108.4,97 												"/>
											</g>
										</g>
										<polygon id="XMLID_7818_" opacity="8.000000e-002" points="111.9,95 111.9,103 105.3,98.8 										"/>
										<polygon id="XMLID_7817_" fill="none" points="111.9,103.3 105.3,107 105.3,98.8 111.9,95 										"/>
										<path id="XMLID_7814_" fill="#544129" d="M104.3,98.4l0.1,9.2l0,1.3l0.6-0.3l7.3-4.2l0.3-0.2V93.7l-0.8,0.4L104.3,98.4z
											 M105.3,98.8l6.6-3.8v8.2l-6.5,3.8L105.3,98.8z"/>
									</g>
									<polygon id="XMLID_7812_" fill="#544129" points="105.3,106.6 111.5,103 111.9,103.3 105.3,107 									"/>
									<polygon id="XMLID_7811_" fill="#544129" points="111.5,95.2 111.5,103 111.9,103.3 111.9,95 									"/>
								</g>
							</g>
						</g>
					</g>
					<polygon id="XMLID_7806_" opacity="0.3" points="111.5,95.2 111.5,103 111.9,103.3 111.9,95 					"/>
					<path id="XMLID_7803_" opacity="0.1" d="M104.3,98.4l0.1,9.2l0,1.3l0.6-0.3l7.3-4.2l0.3-0.2V93.7l-0.8,0.4L104.3,98.4z
						 M105.3,98.8l6.6-3.8v8.2l-6.5,3.8L105.3,98.8z"/>
				</g>
				<g id="XMLID_7775_">
					<g id="XMLID_7780_">
						<g id="XMLID_7781_">
							<g id="XMLID_7782_">
								<g id="XMLID_7783_">
									<g id="XMLID_7786_">
										<g id="XMLID_7792_">
											<g id="XMLID_7801_">
												<polygon fill="#78D5FB" points="98.5,110.8 105.7,106.5 105.6,98.3 98.5,102.6 												"/>
											</g>
											<g id="XMLID_7799_">
												<polygon id="XMLID_7800_" fill="#78D5FB" points="102.2,108.4 104.9,106.9 104.9,99 102.2,100.5 												"/>
											</g>
											<g id="XMLID_7793_">
												<polygon id="XMLID_7798_" fill="#78D5FB" points="101.8,108.6 98.8,110.4 98.8,102.5 101.8,100.7 												"/>
												<path id="XMLID_7797_" opacity="0.2" d="M101.8,100.7l-3.1,1.8v7.9l1.9-1.1c0-2-0.8-2.6-0.8-2.6
													C101.5,105,101.8,100.7,101.8,100.7z"/>
												<g id="XMLID_7794_" opacity="0.6">
													<path id="XMLID_7796_" fill="#C6C6C6" d="M101.1,101.2l-2.4,1.4v7.9l1.5-0.8c0-2-0.6-2.7-0.6-2.7
														C100.9,105.4,101.1,101.2,101.1,101.2z"/>
													<path id="XMLID_7795_" fill="#FFFFFF" d="M100.9,101.3l-2.2,1.3v7.9l1.3-0.8c0-2-0.5-2.8-0.5-2.8
														C100.7,105.5,100.9,101.3,100.9,101.3z"/>
												</g>
											</g>
										</g>
										<polygon id="XMLID_7791_" opacity="8.000000e-002" points="105.3,98.8 104.9,106.8 98.8,102.5 										"/>
										<polygon id="XMLID_7790_" fill="none" points="105.3,107 98.8,110.8 98.8,102.5 105.3,98.8 										"/>
										<path id="XMLID_7787_" fill="#544129" d="M97.7,102.2l0.1,9.2l0,1.3l0.6-0.3l7.3-4.2l0,0l0-10.4l-0.4,0.2L97.7,102.2z
											 M98.8,102.5l6.6-3.8v8.2l-6.5,3.8L98.8,102.5z"/>
									</g>
									<polygon id="XMLID_7785_" fill="#544129" points="98.8,110.3 104.9,106.8 105.3,107 98.8,110.8 									"/>
									<polygon id="XMLID_7784_" fill="#544129" points="104.9,99 104.9,106.8 105.3,107 105.3,98.8 									"/>
								</g>
							</g>
						</g>
					</g>
					<polygon id="XMLID_7779_" opacity="0.3" points="104.9,99 104.9,106.8 105.3,107 105.3,98.8 					"/>
					<path id="XMLID_7776_" opacity="0.1" d="M97.7,102.2l0.1,9.2l0,1.3l0.6-0.3l7.3-4.2l0,0l0-10.4l-0.4,0.2L97.7,102.2z
						 M98.8,102.5l6.6-3.8v8.2l-6.5,3.8L98.8,102.5z"/>
				</g>
				<polygon id="XMLID_7774_" opacity="0.1" points="112.6,104.1 97.8,112.6 97.7,102.2 112.6,93.7 				"/>
				<polygon id="XMLID_7773_" fill="none" points="119.3,87.3 119.3,103.7 119.3,103.7 91,120.1 91,103.7 				"/>
			</g>
			<g id="Window_2_">
				<g id="XMLID_7737_">
					<g id="XMLID_7746_">
						<g id="XMLID_7747_">
							<g id="XMLID_7748_">
								<g id="XMLID_7749_">
									<g id="XMLID_7752_">
										<g id="XMLID_7758_">
											<g id="XMLID_7771_">
												<polygon fill="#78D5FB" points="87.2,113.1 80.1,108.8 80.1,100.5 87.3,104.8 												"/>
											</g>
											<g id="XMLID_7765_">
												<polygon id="XMLID_7770_" fill="#78D5FB" points="83.6,110.7 80.9,109.1 80.9,101.2 83.6,102.8 												"/>
												<path id="XMLID_7769_" opacity="0.2" d="M83.6,102.8l-2.7-1.6v7.9l1.7,1c0-2-0.7-3.5-0.7-3.5
													C83.3,106.7,83.6,102.8,83.6,102.8z"/>
												<g id="XMLID_7766_" opacity="0.6">
													<path id="XMLID_7768_" fill="#C6C6C6" d="M83,102.4l-2.1-1.2v7.9l1.3,0.7c0-2-0.5-3.4-0.5-3.4
														C82.7,106.4,83,102.4,83,102.4z"/>
													<path id="XMLID_7767_" fill="#FFFFFF" d="M82.8,102.3l-1.9-1.1v7.9l1.2,0.7c0-2-0.5-3.4-0.5-3.4
														C82.6,106.3,82.8,102.3,82.8,102.3z"/>
												</g>
											</g>
											<g id="XMLID_7759_">
												<polygon id="XMLID_7764_" fill="#78D5FB" points="83.9,110.9 87,112.6 87,104.8 83.9,103 												"/>
												<path id="XMLID_7763_" opacity="0.2" d="M83.9,103l3.1,1.8v7.9l-1.9-1.1c0-2,0.8-2.6,0.8-2.6
													C84.3,107.3,83.9,103,83.9,103z"/>
												<g id="XMLID_7760_" opacity="0.6">
													<path id="XMLID_7762_" fill="#C6C6C6" d="M84.7,103.4l2.4,1.4v7.9l-1.5-0.8c0-2,0.6-2.7,0.6-2.7
														C84.9,107.6,84.7,103.4,84.7,103.4z"/>
													<path id="XMLID_7761_" fill="#FFFFFF" d="M84.8,103.5l2.2,1.3v7.9l-1.3-0.8c0-2,0.5-2.8,0.5-2.8
														C85.1,107.7,84.8,103.5,84.8,103.5z"/>
												</g>
											</g>
										</g>
										<polygon id="XMLID_7757_" opacity="8.000000e-002" points="80.5,101 87,112.6 87,104.8 										"/>
										<polygon id="XMLID_7756_" fill="none" points="80.5,109.3 87,113 87,104.8 80.5,101 										"/>
										<path id="XMLID_7753_" fill="#544129" d="M80.5,100.1l-0.8-0.4v10.4l0.3,0.2l7.3,4.2l0.6,0.3l0-1.3l0.1-9.2L80.5,100.1z
											 M87,113l-6.5-3.8V101l6.6,3.8L87,113z"/>
									</g>
									<polygon id="XMLID_7751_" fill="#544129" points="87,112.6 80.8,109 80.5,109.3 87,113 									"/>
									<polygon id="XMLID_7750_" fill="#544129" points="80.9,101.2 80.8,109 80.5,109.3 80.5,101 									"/>
								</g>
							</g>
						</g>
					</g>
					<g id="XMLID_7743_">
						<polygon id="XMLID_7745_" fill="#544129" points="83.3,102.6 83.3,110.9 83.6,111.1 83.6,102.8 						"/>
						<polygon id="XMLID_7744_" fill="#544129" points="83.6,102.8 83.6,102.8 83.6,111.1 83.9,110.9 83.9,103 						"/>
					</g>
					<polygon id="XMLID_7742_" opacity="0.3" points="80.9,101.2 80.8,109 80.5,109.3 80.5,101 					"/>
					<polygon id="XMLID_7741_" opacity="0.3" points="83.6,102.8 83.6,102.8 83.6,111.1 83.9,110.9 83.9,103 					"/>
					<path id="XMLID_7738_" opacity="0.1" d="M80.5,100.1l-0.8-0.4v10.4l0.3,0.2l7.3,4.2l0.6,0.3l0-1.3l0.1-9.2L80.5,100.1z M87,113
						l-6.5-3.8V101l6.6,3.8L87,113z"/>
				</g>
			</g>
			<polygon id="XMLID_7736_" opacity="0.5" fill="none" points="62.6,103.7 91,120.1 91,103.7 62.6,87.3 			"/>
		</g>
	</g>
</g>
</svg>
