<?xml version="1.0" encoding="utf-8"?>
<!-- Generator: Adobe Illustrator 16.0.0, SVG Export Plug-In . SVG Version: 6.00 Build 0)  -->
<!DOCTYPE svg PUBLIC "-//W3C//DTD SVG 1.1//EN" "http://www.w3.org/Graphics/SVG/1.1/DTD/svg11.dtd">
<svg version="1.1" id="Layer_1" xmlns="http://www.w3.org/2000/svg" xmlns:xlink="http://www.w3.org/1999/xlink" x="0px" y="0px"
	 width="164px" height="164px" viewBox="0 0 164 164" enable-background="new 0 0 164 164" xml:space="preserve">
<g id="XMLID_4_">
	<g id="XMLID_5996_">
		<polygon id="XMLID_6090_" fill="#D4AB90" points="53.7,98.2 96.2,122.7 96.2,106.4 53.7,81.8 		"/>
		<g id="XMLID_5997_">
			<g id="XMLID_6077_">
				<polygon id="XMLID_6089_" fill="none" points="67.8,90 67.8,106.4 67.8,106.4 82,114.6 82,98.2 82,98.2 				"/>
				<polygon id="XMLID_6088_" fill="#B68E72" points="79.7,96.9 79.7,98.9 82,100.2 82,98.2 				"/>
				<polygon id="XMLID_6087_" fill="#B68E72" points="77.3,100.2 81.4,102.6 81.4,100.6 77.3,98.2 				"/>
				<polygon id="XMLID_6086_" fill="#B68E72" points="77.3,111.2 81.4,113.5 81.4,111.5 77.3,109.2 				"/>
				<polygon id="XMLID_6082_" fill="#B68E72" points="72.6,108.4 76.6,110.8 76.6,108.8 72.6,106.4 				"/>
				<polyline id="XMLID_6081_" fill="#B68E72" points="71.9,108.1 71.9,106.1 67.8,103.7 67.8,105.7 				"/>
				<polygon id="XMLID_6080_" fill="#B68E72" points="72.6,103 76.6,105.3 76.6,103.3 72.6,101 				"/>
				<polygon id="XMLID_6079_" fill="#B68E72" points="71.9,100.6 67.8,98.3 67.8,100.3 71.9,102.6 				"/>
				<polygon id="XMLID_6078_" fill="#B68E72" points="79.7,109.9 82,111.2 82,109.2 79.7,107.9 				"/>
			</g>
			<g id="XMLID_6050_">
				<g id="XMLID_6051_">
					<g id="XMLID_6063_">
						<polygon id="XMLID_6076_" fill="#AD856A" points="96.2,122.7 96.2,106.4 96.2,106.4 110.4,98.2 124.5,90 124.5,106.4 
							124.5,106.4 110.4,114.6 						"/>
						<g id="XMLID_6064_">
							<polygon id="XMLID_6075_" fill="none" points="110.4,98.2 110.4,114.6 110.4,114.6 96.2,122.7 96.2,106.4 96.2,106.4 							
								"/>
							<g id="XMLID_6065_">
								<polygon id="XMLID_6074_" fill="#90674C" points="99.2,104.7 103.2,102.3 103.3,102.3 103.3,104.3 99.2,106.7 								"/>
								<polygon id="XMLID_6073_" fill="#90674C" points="98.5,105 98.5,107 96.2,108.4 96.2,106.4 								"/>
								<polygon id="XMLID_6072_" fill="#90674C" points="100.9,108.4 96.8,110.7 96.8,108.7 100.9,106.4 								"/>
								<polygon id="XMLID_6071_" fill="#90674C" points="100.9,119.3 96.8,121.7 96.8,119.7 100.9,117.3 								"/>
								<polygon id="XMLID_6070_" fill="#90674C" points="106.3,114.2 110.4,111.9 110.4,113.9 106.3,116.2 								"/>
								<polygon id="XMLID_6069_" fill="#90674C" points="100.9,113.9 96.8,116.2 96.8,114.2 100.9,111.9 								"/>
								<polygon id="XMLID_6068_" fill="#90674C" points="98.5,118 96.2,119.4 96.2,117.4 98.5,116 								"/>
								<polygon id="XMLID_6067_" fill="#90674C" points="108.7,110.2 110.4,109.2 110.4,111.2 108.7,112.1 								"/>
								<polygon id="XMLID_6066_" fill="#90674C" points="98.5,112.5 96.2,113.9 96.2,111.9 98.5,110.5 								"/>
							</g>
						</g>
					</g>
					<g id="XMLID_6052_">
						<polygon id="XMLID_6062_" fill="none" points="124.5,90 124.5,106.4 124.5,106.4 110.4,114.6 110.4,98.2 110.4,98.2 						"/>
						<g id="XMLID_6053_">
							<polygon id="XMLID_6061_" fill="#90674C" points="122.8,91 124.5,90 124.5,92 122.8,93 							"/>
							<polygon id="XMLID_6060_" fill="#90674C" points="118.1,93.7 121.1,92 122.2,91.4 122.2,93.4 118.1,95.7 							"/>
							<polygon id="XMLID_6059_" fill="#90674C" points="119.8,97.5 115.7,99.8 115.7,97.8 119.8,95.5 							"/>
							<polygon id="XMLID_6058_" fill="#90674C" points="120.5,95.1 124.5,92.8 124.5,94.8 120.5,97.1 							"/>
							<polygon id="XMLID_6057_" fill="#90674C" points="115.1,111.2 111,113.5 111,111.5 115.1,109.2 							"/>
							<polygon id="XMLID_6056_" fill="#90674C" points="120.5,100.6 124.5,98.2 124.5,100.2 120.5,102.6 							"/>
							<polygon id="XMLID_6055_" fill="#90674C" points="122.9,102 124.5,101 124.5,103 122.9,104 							"/>
							<polygon id="XMLID_6054_" fill="#90674C" points="122.9,96.5 124.5,95.5 124.5,97.5 122.9,98.5 							"/>
						</g>
					</g>
				</g>
			</g>
			<g id="XMLID_6040_">
				<polygon id="XMLID_6049_" fill="none" points="53.7,81.8 53.7,98.2 53.7,98.2 67.8,106.4 67.8,90 67.8,90 				"/>
				<polygon id="XMLID_6048_" fill="#B68E72" points="55.3,82.8 53.7,81.8 53.7,83.8 55.3,84.8 				"/>
				<polygon id="XMLID_6047_" fill="#B68E72" points="60.1,85.6 57.1,83.8 56,83.2 56,85.2 60.1,87.6 				"/>
				<polygon id="XMLID_6046_" fill="#B68E72" points="58.4,89.3 62.4,91.6 62.4,89.7 58.4,87.3 				"/>
				<polygon id="XMLID_6045_" fill="#B68E72" points="63.1,92 67.2,94.4 67.2,92.4 63.1,90 				"/>
				<polygon id="XMLID_6044_" fill="#B68E72" points="57.7,86.9 53.7,84.6 53.7,86.6 57.7,88.9 				"/>
				<polygon id="XMLID_6043_" fill="#B68E72" points="57.7,97.9 53.7,95.5 53.7,97.5 57.7,99.9 				"/>
				<polygon id="XMLID_6042_" fill="#B68E72" points="55.3,93.8 53.7,92.8 53.7,94.8 55.3,95.8 				"/>
				<polygon id="XMLID_6041_" fill="#B68E72" points="55.3,88.3 53.7,87.4 53.7,89.3 55.3,90.3 				"/>
			</g>
			<polyline id="XMLID_6039_" fill="#B68E72" points="69.5,104 69.5,102 65.5,99.7 65.5,101.7 			"/>
			<g id="XMLID_6027_">
				<polygon id="XMLID_6038_" fill="#B68E72" points="83.7,99.2 82,98.2 82,100.2 83.7,101.2 				"/>
				<polygon id="XMLID_6037_" fill="#B68E72" points="93.2,104.7 89.2,102.4 89.1,102.3 89.1,104.3 93.2,106.7 				"/>
				<polygon id="XMLID_6036_" fill="#B68E72" points="93.8,105 93.8,107 96.2,108.4 96.2,106.4 				"/>
				<polygon id="XMLID_6035_" fill="#B68E72" points="91.5,119.4 95.5,121.7 95.5,119.7 91.5,117.4 				"/>
				<polygon id="XMLID_6034_" fill="#B68E72" points="86.7,116.6 90.8,119 90.8,117 86.7,114.6 				"/>
				<polyline id="XMLID_6033_" fill="#B68E72" points="95.5,116.2 95.5,114.2 91.5,111.9 91.5,113.9 				"/>
				<polygon id="XMLID_6032_" fill="#B68E72" points="93.8,118 96.2,119.4 96.2,117.4 93.8,116 				"/>
				<polygon id="XMLID_6031_" fill="#B68E72" points="89.1,115.3 93.2,117.6 93.2,115.6 89.1,113.3 				"/>
				<polygon id="XMLID_6030_" fill="#B68E72" points="83.7,110.2 82,109.2 82,111.2 83.7,112.2 				"/>
				<polygon id="XMLID_6029_" fill="#B68E72" points="93.8,112.6 96.2,113.9 96.2,111.9 93.8,110.6 				"/>
				<polygon id="XMLID_6028_" fill="#B68E72" points="82,103.7 82,103.7 79.7,102.4 79.7,104.4 82,105.7 82,105.7 83.7,106.7 
					83.7,104.7 				"/>
			</g>
			<g id="Door_7_">
				<defs>
					<polygon id="XMLID_5998_" points="67.8,106.4 82,114.6 82,98.2 67.8,90 					"/>
				</defs>
				<clipPath id="XMLID_9_">
					<use xlink:href="#XMLID_5998_"  overflow="visible"/>
				</clipPath>
				<g id="XMLID_5999_" clip-path="url(#XMLID_9_)">
					<g id="XMLID_6016_">
						<g id="XMLID_6019_">
							<g id="XMLID_6020_">
								<g id="XMLID_6021_">
									<g id="XMLID_6022_">
										<g id="XMLID_6023_">
											<g id="XMLID_6024_">
												<polygon id="XMLID_6026_" fill="none" points="72.1,96.5 72.1,108.8 77.7,112 77.7,99.7 												"/>
												<polygon id="XMLID_6025_" fill="#544129" points="72.1,95.6 71.2,95 71.2,108.3 71.7,108.6 72.1,108.8 72.1,96.5 
													77.7,99.7 77.7,112 78,112.3 78.6,112.6 78.6,111.4 78.7,99.3 												"/>
											</g>
										</g>
									</g>
								</g>
							</g>
						</g>
						<g id="XMLID_6017_">
							<polygon id="XMLID_6018_" fill="none" points="72.1,96.5 72.1,108.8 77.7,112 77.7,99.7 							"/>
						</g>
					</g>
					<g id="XMLID_6000_">
						<g id="XMLID_6003_">
							<polygon id="XMLID_6015_" fill="#60462F" points="77.7,112 72.1,108.8 72.1,96.4 77.7,99.7 							"/>
							<polygon id="XMLID_6014_" opacity="0.1" points="77.7,112 72.1,108.8 72.1,96.5 77.7,99.7 							"/>
							<g id="XMLID_6004_">
								<g id="XMLID_6007_">
									<g id="XMLID_6008_">
										<g id="XMLID_6009_">
											<g id="XMLID_6010_">
												<g id="XMLID_6011_">
													<g id="XMLID_6012_">
														<polygon id="XMLID_6013_" fill="none" points="72.1,96.5 72.1,108.8 77.7,112 77.7,99.7 														"/>
													</g>
												</g>
											</g>
										</g>
									</g>
								</g>
								<g id="XMLID_6005_">
									<polygon id="XMLID_6006_" fill="none" points="72.1,96.5 72.1,108.8 77.7,112 77.7,99.7 									"/>
								</g>
							</g>
						</g>
						<polygon id="XMLID_6002_" opacity="0.1" points="72.1,95.6 71.2,95 71.2,108.3 72.1,108.8 72.1,96.5 77.7,99.7 77.7,112 
							78.6,112.6 78.6,111.4 78.7,99.3 						"/>
						<polygon id="XMLID_6001_" opacity="0.3" points="72.1,96.5 72.1,108.8 72.5,109.1 72.5,96.7 						"/>
					</g>
				</g>
			</g>
		</g>
	</g>
	<polygon id="XMLID_5995_" fill="#D2C7B0" points="96.2,106.4 124.5,90 82,65.5 53.7,81.8 	"/>
</g>
<g id="XMLID_8238_">
	<g id="XMLID_8239_">
		<g id="XMLID_8311_">
			<g id="XMLID_8341_">
				<g id="XMLID_8346_">
					<g id="XMLID_8347_">
						<g id="XMLID_8348_">
							<g id="XMLID_8349_">
								<g id="XMLID_8352_">
									<g id="XMLID_8358_">
										<g id="XMLID_8367_">
											<polygon fill="#78D5FB" points="110.3,109.8 117.5,105.5 117.5,97.2 110.3,101.5 											"/>
										</g>
										<g id="XMLID_8361_">
											<polygon id="XMLID_8366_" fill="#78D5FB" points="113.9,107.4 116.7,105.8 116.7,97.9 113.9,99.5 											"/>
											<path id="XMLID_8365_" opacity="0.2" d="M113.9,99.5l2.7-1.6v7.9l-1.7,1c0-2,0.7-3.5,0.7-3.5
												C114.2,103.4,113.9,99.5,113.9,99.5z"/>
											<g id="XMLID_8362_" opacity="0.6">
												<path id="XMLID_8364_" fill="#C6C6C6" d="M114.6,99.1l2.1-1.2v7.9l-1.3,0.7c0-2,0.5-3.4,0.5-3.4
													C114.8,103.1,114.6,99.1,114.6,99.1z"/>
												<path id="XMLID_8363_" fill="#FFFFFF" d="M114.7,99l1.9-1.1v7.9l-1.2,0.7c0-2,0.5-3.4,0.5-3.4
													C114.9,103,114.7,99,114.7,99z"/>
											</g>
										</g>
										<g id="XMLID_8359_">
											<polygon id="XMLID_8360_" fill="#78D5FB" points="113.6,107.6 110.5,109.3 110.5,101.5 113.6,99.7 											"/>
										</g>
									</g>
									<polygon id="XMLID_8357_" opacity="8.000000e-002" points="117.1,97.7 117.1,105.7 110.5,101.5 									"/>
									<polygon id="XMLID_8356_" fill="none" points="117.1,105.9 110.5,109.7 110.5,101.5 117.1,97.7 									"/>
									<path id="XMLID_8353_" fill="#544129" d="M109.5,101.1l0.1,9.2l0,1.3l0.6-0.3l7.3-4.2l0.3-0.2V96.4l-0.8,0.4L109.5,101.1z
										 M110.5,101.5l6.6-3.8v8.2l-6.5,3.8L110.5,101.5z"/>
								</g>
								<polygon id="XMLID_8351_" fill="#544129" points="110.5,109.3 116.7,105.7 117.1,105.9 110.5,109.7 								"/>
								<polygon id="XMLID_8350_" fill="#544129" points="116.7,97.9 116.7,105.7 117.1,105.9 117.1,97.7 								"/>
							</g>
						</g>
					</g>
				</g>
				<polygon id="XMLID_8345_" opacity="0.3" points="116.7,97.9 116.7,105.7 117.1,105.9 117.1,97.7 				"/>
				<path id="XMLID_8342_" opacity="0.1" d="M109.5,101.1l0.1,9.2l0,1.3l0.6-0.3l7.3-4.2l0.3-0.2V96.4l-0.8,0.4L109.5,101.1z
					 M110.5,101.5l6.6-3.8v8.2l-6.5,3.8L110.5,101.5z"/>
			</g>
			<g id="XMLID_8314_">
				<g id="XMLID_8319_">
					<g id="XMLID_8320_">
						<g id="XMLID_8321_">
							<g id="XMLID_8322_">
								<g id="XMLID_8325_">
									<g id="XMLID_8331_">
										<g id="XMLID_8340_">
											<polygon fill="#78D5FB" points="103.7,113.5 110.9,109.2 110.9,101 103.7,105.3 											"/>
										</g>
										<g id="XMLID_8338_">
											<polygon id="XMLID_8339_" fill="#78D5FB" points="107.4,111.1 110.1,109.6 110.1,101.7 107.4,103.2 											"/>
										</g>
										<g id="XMLID_8332_">
											<polygon id="XMLID_8337_" fill="#78D5FB" points="107,111.3 104,113.1 104,105.2 107,103.4 											"/>
											<path id="XMLID_8336_" opacity="0.2" d="M107,103.4l-3.1,1.8v7.9l1.9-1.1c0-2-0.8-2.6-0.8-2.6
												C106.7,107.7,107,103.4,107,103.4z"/>
											<g id="XMLID_8333_" opacity="0.6">
												<path id="XMLID_8335_" fill="#C6C6C6" d="M106.3,103.8l-2.4,1.4v7.9l1.5-0.8c0-2-0.6-2.7-0.6-2.7
													C106.1,108.1,106.3,103.8,106.3,103.8z"/>
												<path id="XMLID_8334_" fill="#FFFFFF" d="M106.1,104l-2.2,1.2v7.9l1.3-0.8c0-2-0.5-2.8-0.5-2.8
													C105.9,108.2,106.1,104,106.1,104z"/>
											</g>
										</g>
									</g>
									<polygon id="XMLID_8330_" opacity="8.000000e-002" points="110.5,101.5 110.1,109.5 104,105.2 									"/>
									<polygon id="XMLID_8329_" fill="none" points="110.5,109.7 104,113.5 104,105.2 110.5,101.5 									"/>
									<path id="XMLID_8326_" fill="#544129" d="M102.9,104.9l0.1,9.2l0,1.3l0.6-0.3l7.3-4.2l0,0l0-10.4l-0.4,0.2L102.9,104.9z
										 M104,105.2l6.6-3.8v8.2l-6.5,3.8L104,105.2z"/>
								</g>
								<polygon id="XMLID_8324_" fill="#544129" points="104,113 110.1,109.5 110.5,109.7 104,113.5 								"/>
								<polygon id="XMLID_8323_" fill="#544129" points="110.1,101.7 110.1,109.5 110.5,109.7 110.5,101.5 								"/>
							</g>
						</g>
					</g>
				</g>
				<polygon id="XMLID_8318_" opacity="0.3" points="110.1,101.7 110.1,109.5 110.5,109.7 110.5,101.5 				"/>
				<path id="XMLID_8315_" opacity="0.1" d="M102.9,104.9l0.1,9.2l0,1.3l0.6-0.3l7.3-4.2l0,0l0-10.4l-0.4,0.2L102.9,104.9z
					 M104,105.2l6.6-3.8v8.2l-6.5,3.8L104,105.2z"/>
			</g>
			<polygon id="XMLID_8313_" opacity="0.1" points="117.8,106.8 103,115.3 102.9,104.9 117.8,96.4 			"/>
			<polygon id="XMLID_8312_" opacity="0.5" fill="none" points="124.5,90 124.5,106.4 124.5,106.4 96.2,122.7 96.2,106.4 
				110.4,98.2 			"/>
		</g>
		<g id="Window_35_">
			<polygon id="XMLID_8310_" opacity="0.5" fill="none" points="53.7,98.2 96.2,122.7 96.2,106.4 53.7,81.8 			"/>
			<g id="XMLID_8275_">
				<g id="XMLID_8284_">
					<g id="XMLID_8285_">
						<g id="XMLID_8286_">
							<g id="XMLID_8287_">
								<g id="XMLID_8290_">
									<g id="XMLID_8296_">
										<g id="XMLID_8309_">
											<polygon fill="#78D5FB" points="92.4,115.8 85.3,111.5 85.3,103.2 92.5,107.5 											"/>
										</g>
										<g id="XMLID_8303_">
											<polygon id="XMLID_8308_" fill="#78D5FB" points="88.8,113.4 86.1,111.8 86.1,103.9 88.8,105.5 											"/>
											<path id="XMLID_8307_" opacity="0.2" d="M88.8,105.5l-2.7-1.6v7.9l1.7,1c0-2-0.7-3.5-0.7-3.5
												C88.5,109.4,88.8,105.5,88.8,105.5z"/>
											<g id="XMLID_8304_" opacity="0.6">
												<path id="XMLID_8306_" fill="#C6C6C6" d="M88.2,105.1l-2.1-1.2v7.9l1.3,0.7c0-2-0.5-3.4-0.5-3.4
													C87.9,109.1,88.2,105.1,88.2,105.1z"/>
												<path id="XMLID_8305_" fill="#FFFFFF" d="M88,105l-1.9-1.1v7.9l1.2,0.7c0-2-0.5-3.4-0.5-3.4C87.8,109,88,105,88,105z"/>
											</g>
										</g>
										<g id="XMLID_8297_">
											<polygon id="XMLID_8302_" fill="#78D5FB" points="89.1,113.6 92.2,115.3 92.2,107.4 89.1,105.7 											"/>
											<path id="XMLID_8301_" opacity="0.2" d="M89.1,105.7l3.1,1.8v7.9l-1.9-1.1c0-2,0.8-2.6,0.8-2.6
												C89.5,109.9,89.1,105.7,89.1,105.7z"/>
											<g id="XMLID_8298_" opacity="0.6">
												<path id="XMLID_8300_" fill="#C6C6C6" d="M89.9,106.1l2.4,1.4v7.9l-1.5-0.8c0-2,0.6-2.7,0.6-2.7
													C90.1,110.3,89.9,106.1,89.9,106.1z"/>
												<path id="XMLID_8299_" fill="#FFFFFF" d="M90,106.2l2.2,1.2v7.9l-1.3-0.8c0-2,0.5-2.8,0.5-2.8
													C90.3,110.4,90,106.2,90,106.2z"/>
											</g>
										</g>
									</g>
									<polygon id="XMLID_8295_" opacity="8.000000e-002" points="85.7,103.7 92.2,115.3 92.2,107.4 									"/>
									<polygon id="XMLID_8294_" fill="none" points="85.7,111.9 92.2,115.7 92.2,107.4 85.7,103.7 									"/>
									<path id="XMLID_8291_" fill="#544129" d="M85.7,102.8l-0.8-0.4v10.4l0.3,0.2l7.3,4.2l0.6,0.3l0-1.3l0.1-9.2L85.7,102.8z
										 M92.2,115.7l-6.5-3.8v-8.2l6.6,3.8L92.2,115.7z"/>
								</g>
								<polygon id="XMLID_8289_" fill="#544129" points="92.2,115.3 86,111.7 85.7,111.9 92.2,115.7 								"/>
								<polygon id="XMLID_8288_" fill="#544129" points="86.1,103.9 86,111.7 85.7,111.9 85.7,103.7 								"/>
							</g>
						</g>
					</g>
				</g>
				<g id="XMLID_8281_">
					<polygon id="XMLID_8283_" fill="#544129" points="88.5,105.3 88.5,113.5 88.8,113.7 88.8,105.5 					"/>
					<polygon id="XMLID_8282_" fill="#544129" points="88.8,105.5 88.8,105.5 88.8,113.7 89.1,113.5 89.1,105.7 					"/>
				</g>
				<polygon id="XMLID_8280_" opacity="0.3" points="86.1,103.9 86,111.7 85.7,111.9 85.7,103.7 				"/>
				<polygon id="XMLID_8279_" opacity="0.3" points="88.8,105.5 88.8,105.5 88.8,113.7 89.1,113.5 89.1,105.7 				"/>
				<path id="XMLID_8276_" opacity="0.1" d="M85.7,102.8l-0.8-0.4v10.4l0.3,0.2l7.3,4.2l0.6,0.3l0-1.3l0.1-9.2L85.7,102.8z
					 M92.2,115.7l-6.5-3.8v-8.2l6.6,3.8L92.2,115.7z"/>
			</g>
		</g>
		<g id="Window_34_">
			<g id="XMLID_8240_">
				<g id="XMLID_8249_">
					<g id="XMLID_8250_">
						<g id="XMLID_8251_">
							<g id="XMLID_8252_">
								<g id="XMLID_8255_">
									<g id="XMLID_8261_">
										<g id="XMLID_8274_">
											<polygon fill="#78D5FB" points="64.1,99.4 56.9,95.1 56.9,86.8 64.1,91.1 											"/>
										</g>
										<g id="XMLID_8268_">
											<polygon id="XMLID_8273_" fill="#78D5FB" points="60.4,97 57.7,95.4 57.7,87.6 60.4,89.1 											"/>
											<path id="XMLID_8272_" opacity="0.2" d="M60.4,89.1l-2.7-1.6v7.9l1.7,1c0-2-0.7-3.5-0.7-3.5C60.2,93,60.4,89.1,60.4,89.1
												z"/>
											<g id="XMLID_8269_" opacity="0.6">
												<path id="XMLID_8271_" fill="#C6C6C6" d="M59.8,88.8l-2.1-1.2v7.9l1.3,0.7c0-2-0.5-3.4-0.5-3.4
													C59.6,92.7,59.8,88.8,59.8,88.8z"/>
												<path id="XMLID_8270_" fill="#FFFFFF" d="M59.6,88.7l-1.9-1.1v7.9l1.2,0.7c0-2-0.5-3.4-0.5-3.4
													C59.4,92.6,59.6,88.7,59.6,88.7z"/>
											</g>
										</g>
										<g id="XMLID_8262_">
											<polygon id="XMLID_8267_" fill="#78D5FB" points="60.8,97.2 63.9,99 63.9,91.1 60.8,89.3 											"/>
											<path id="XMLID_8266_" opacity="0.2" d="M60.8,89.3l3.1,1.8V99L62,97.9c0-2,0.8-2.6,0.8-2.6
												C61.1,93.6,60.8,89.3,60.8,89.3z"/>
											<g id="XMLID_8263_" opacity="0.6">
												<path id="XMLID_8265_" fill="#C6C6C6" d="M61.5,89.7l2.4,1.4V99l-1.5-0.8c0-2,0.6-2.7,0.6-2.7
													C61.8,93.9,61.5,89.7,61.5,89.7z"/>
												<path id="XMLID_8264_" fill="#FFFFFF" d="M61.7,89.8l2.2,1.3V99l-1.3-0.8c0-2,0.5-2.8,0.5-2.8
													C61.9,94,61.7,89.8,61.7,89.8z"/>
											</g>
										</g>
									</g>
									<polygon id="XMLID_8260_" opacity="8.000000e-002" points="57.3,87.3 63.9,98.9 63.9,91.1 									"/>
									<polygon id="XMLID_8259_" fill="none" points="57.3,95.6 63.9,99.3 63.9,91.1 57.3,87.3 									"/>
									<path id="XMLID_8256_" fill="#544129" d="M57.3,86.4L56.6,86v10.4l0.3,0.2l7.3,4.2l0.6,0.3l0-1.3l0.1-9.2L57.3,86.4z
										 M63.9,99.3l-6.5-3.8v-8.2l6.6,3.8L63.9,99.3z"/>
								</g>
								<polygon id="XMLID_8254_" fill="#544129" points="63.9,98.9 57.7,95.4 57.3,95.6 63.9,99.3 								"/>
								<polygon id="XMLID_8253_" fill="#544129" points="57.7,87.6 57.7,95.4 57.3,95.6 57.3,87.3 								"/>
							</g>
						</g>
					</g>
				</g>
				<g id="XMLID_8246_">
					<polygon id="XMLID_8248_" fill="#544129" points="60.1,88.9 60.1,97.2 60.4,97.4 60.4,89.1 					"/>
					<polygon id="XMLID_8247_" fill="#544129" points="60.4,89.1 60.4,89.1 60.4,97.4 60.8,97.2 60.8,89.3 					"/>
				</g>
				<polygon id="XMLID_8245_" opacity="0.3" points="57.7,87.6 57.7,95.4 57.3,95.6 57.3,87.3 				"/>
				<polygon id="XMLID_8244_" opacity="0.3" points="60.4,89.1 60.4,89.1 60.4,97.4 60.8,97.2 60.8,89.3 				"/>
				<path id="XMLID_8241_" opacity="0.1" d="M57.3,86.4L56.6,86v10.4l0.3,0.2l7.3,4.2l0.6,0.3l0-1.3l0.1-9.2L57.3,86.4z M63.9,99.3
					l-6.5-3.8v-8.2l6.6,3.8L63.9,99.3z"/>
			</g>
		</g>
	</g>
</g>
<g id="XMLID_8123_">
	<g id="Window_33_">
		<polygon id="XMLID_8237_" opacity="0.5" fill="none" points="82,114.6 96.2,122.7 96.2,106.4 82,98.2 		"/>
		<g id="XMLID_8202_">
			<g id="XMLID_8211_">
				<g id="XMLID_8212_">
					<g id="XMLID_8213_">
						<g id="XMLID_8214_">
							<g id="XMLID_8217_">
								<g id="XMLID_8223_">
									<g id="XMLID_8236_">
										<polygon fill="#78D5FB" points="92.4,115.8 85.3,111.5 85.3,103.2 92.5,107.5 										"/>
									</g>
									<g id="XMLID_8230_">
										<polygon id="XMLID_8235_" fill="#78D5FB" points="88.8,113.4 86.1,111.8 86.1,103.9 88.8,105.5 										"/>
										<path id="XMLID_8234_" opacity="0.2" d="M88.8,105.5l-2.7-1.6v7.9l1.7,1c0-2-0.7-3.5-0.7-3.5
											C88.5,109.4,88.8,105.5,88.8,105.5z"/>
										<g id="XMLID_8231_" opacity="0.6">
											<path id="XMLID_8233_" fill="#C6C6C6" d="M88.2,105.1l-2.1-1.2v7.9l1.3,0.7c0-2-0.5-3.4-0.5-3.4
												C87.9,109.1,88.2,105.1,88.2,105.1z"/>
											<path id="XMLID_8232_" fill="#FFFFFF" d="M88,105l-1.9-1.1v7.9l1.2,0.7c0-2-0.5-3.4-0.5-3.4C87.8,109,88,105,88,105z"/>
										</g>
									</g>
									<g id="XMLID_8224_">
										<polygon id="XMLID_8229_" fill="#78D5FB" points="89.1,113.6 92.2,115.3 92.2,107.5 89.1,105.7 										"/>
										<path id="XMLID_8228_" opacity="0.2" d="M89.1,105.7l3.1,1.8v7.9l-1.9-1.1c0-2,0.8-2.6,0.8-2.6
											C89.5,110,89.1,105.7,89.1,105.7z"/>
										<g id="XMLID_8225_" opacity="0.6">
											<path id="XMLID_8227_" fill="#C6C6C6" d="M89.9,106.1l2.4,1.4v7.9l-1.5-0.8c0-2,0.6-2.7,0.6-2.7
												C90.1,110.3,89.9,106.1,89.9,106.1z"/>
											<path id="XMLID_8226_" fill="#FFFFFF" d="M90,106.2l2.2,1.3v7.9l-1.3-0.8c0-2,0.5-2.8,0.5-2.8
												C90.3,110.4,90,106.2,90,106.2z"/>
										</g>
									</g>
								</g>
								<polygon id="XMLID_8222_" opacity="8.000000e-002" points="85.7,103.7 92.2,115.3 92.2,107.5 								"/>
								<polygon id="XMLID_8221_" fill="none" points="85.7,112 92.2,115.7 92.2,107.5 85.7,103.7 								"/>
								<path id="XMLID_8218_" fill="#544129" d="M85.7,102.8l-0.8-0.4v10.4l0.3,0.2l7.3,4.2l0.6,0.3l0-1.3l0.1-9.2L85.7,102.8z
									 M92.2,115.7l-6.5-3.8v-8.2l6.6,3.8L92.2,115.7z"/>
							</g>
							<polygon id="XMLID_8216_" fill="#544129" points="92.2,115.3 86,111.7 85.7,112 92.2,115.7 							"/>
							<polygon id="XMLID_8215_" fill="#544129" points="86.1,103.9 86,111.7 85.7,112 85.7,103.7 							"/>
						</g>
					</g>
				</g>
			</g>
			<g id="XMLID_8208_">
				<polygon id="XMLID_8210_" fill="#544129" points="88.5,105.3 88.5,113.6 88.8,113.7 88.8,105.5 				"/>
				<polygon id="XMLID_8209_" fill="#544129" points="88.8,105.5 88.8,105.5 88.8,113.7 89.1,113.5 89.1,105.7 				"/>
			</g>
			<polygon id="XMLID_8207_" opacity="0.3" points="86.1,103.9 86,111.7 85.7,112 85.7,103.7 			"/>
			<polygon id="XMLID_8206_" opacity="0.3" points="88.8,105.5 88.8,105.5 88.8,113.7 89.1,113.5 89.1,105.7 			"/>
			<path id="XMLID_8203_" opacity="0.1" d="M85.7,102.8l-0.8-0.4v10.4l0.3,0.2l7.3,4.2l0.6,0.3l0-1.3l0.1-9.2L85.7,102.8z
				 M92.2,115.7l-6.5-3.8v-8.2l6.6,3.8L92.2,115.7z"/>
		</g>
	</g>
	<g id="Window_31_">
		<polygon id="XMLID_8165_" opacity="0.5" fill="none" points="53.7,98.2 67.8,106.4 67.8,90 53.7,81.8 		"/>
		<g id="XMLID_8124_">
			<g id="XMLID_8133_">
				<g id="XMLID_8134_">
					<g id="XMLID_8135_">
						<g id="XMLID_8136_">
							<g id="XMLID_8143_">
								<g id="XMLID_8151_">
									<g id="XMLID_8164_">
										<polygon fill="#78D5FB" points="64.1,99.4 56.9,95.1 56.9,86.8 64.1,91.1 										"/>
									</g>
									<g id="XMLID_8158_">
										<polygon id="XMLID_8163_" fill="#78D5FB" points="60.4,97 57.7,95.4 57.7,87.6 60.4,89.1 										"/>
										<path id="XMLID_8162_" opacity="0.2" d="M60.4,89.1l-2.7-1.6v7.9l1.7,1c0-2-0.7-3.5-0.7-3.5C60.2,93,60.4,89.1,60.4,89.1z
											"/>
										<g id="XMLID_8159_" opacity="0.6">
											<path id="XMLID_8161_" fill="#C6C6C6" d="M59.8,88.8l-2.1-1.2v7.9l1.3,0.7c0-2-0.5-3.4-0.5-3.4
												C59.6,92.7,59.8,88.8,59.8,88.8z"/>
											<path id="XMLID_8160_" fill="#FFFFFF" d="M59.6,88.7l-1.9-1.1v7.9l1.2,0.7c0-2-0.5-3.4-0.5-3.4
												C59.4,92.6,59.6,88.7,59.6,88.7z"/>
										</g>
									</g>
									<g id="XMLID_8152_">
										<polygon id="XMLID_8157_" fill="#78D5FB" points="60.8,97.2 63.9,99 63.9,91.1 60.8,89.3 										"/>
										<path id="XMLID_8156_" opacity="0.2" d="M60.8,89.3l3.1,1.8V99L62,97.9c0-2,0.8-2.6,0.8-2.6
											C61.1,93.6,60.8,89.3,60.8,89.3z"/>
										<g id="XMLID_8153_" opacity="0.6">
											<path id="XMLID_8155_" fill="#C6C6C6" d="M61.5,89.7l2.4,1.4V99l-1.5-0.8c0-2,0.6-2.7,0.6-2.7
												C61.8,94,61.5,89.7,61.5,89.7z"/>
											<path id="XMLID_8154_" fill="#FFFFFF" d="M61.7,89.8l2.2,1.2V99l-1.3-0.8c0-2,0.5-2.8,0.5-2.8
												C61.9,94,61.7,89.8,61.7,89.8z"/>
										</g>
									</g>
								</g>
								<polygon id="XMLID_8150_" opacity="8.000000e-002" points="57.3,87.3 63.9,98.9 63.9,91.1 								"/>
								<polygon id="XMLID_8149_" fill="none" points="57.3,95.6 63.9,99.3 63.9,91.1 57.3,87.3 								"/>
								<path id="XMLID_8145_" fill="#544129" d="M57.3,86.4L56.6,86v10.4l0.3,0.2l7.3,4.2l0.6,0.3l0-1.3l0.1-9.2L57.3,86.4z
									 M63.9,99.3l-6.5-3.8v-8.2l6.6,3.8L63.9,99.3z"/>
							</g>
							<polygon id="XMLID_8141_" fill="#544129" points="63.9,98.9 57.7,95.4 57.3,95.6 63.9,99.3 							"/>
							<polygon id="XMLID_8140_" fill="#544129" points="57.7,87.6 57.7,95.4 57.3,95.6 57.3,87.3 							"/>
						</g>
					</g>
				</g>
			</g>
			<g id="XMLID_8130_">
				<polygon id="XMLID_8132_" fill="#544129" points="60.1,88.9 60.1,97.2 60.4,97.4 60.4,89.1 				"/>
				<polygon id="XMLID_8131_" fill="#544129" points="60.4,89.1 60.4,89.1 60.4,97.4 60.8,97.2 60.8,89.3 				"/>
			</g>
			<polygon id="XMLID_8129_" opacity="0.3" points="57.7,87.6 57.7,95.4 57.3,95.6 57.3,87.3 			"/>
			<polygon id="XMLID_8128_" opacity="0.3" points="60.4,89.1 60.4,89.1 60.4,97.4 60.8,97.2 60.8,89.3 			"/>
			<path id="XMLID_8125_" opacity="0.1" d="M57.3,86.4L56.6,86v10.4l0.3,0.2l7.3,4.2l0.6,0.3l0-1.3l0.1-9.2L57.3,86.4z M63.9,99.3
				l-6.5-3.8v-8.2l6.6,3.8L63.9,99.3z"/>
		</g>
	</g>
</g>
</svg>
