<?xml version="1.0" encoding="utf-8"?>
<!-- Generator: Adobe Illustrator 16.0.0, SVG Export Plug-In . SVG Version: 6.00 Build 0)  -->
<!DOCTYPE svg PUBLIC "-//W3C//DTD SVG 1.1//EN" "http://www.w3.org/Graphics/SVG/1.1/DTD/svg11.dtd">
<svg version="1.1" id="Layer_1" xmlns="http://www.w3.org/2000/svg" xmlns:xlink="http://www.w3.org/1999/xlink" x="0px" y="0px"
	 width="94.333px" height="79.666px" viewBox="0 0 94.333 79.666" enable-background="new 0 0 94.333 79.666" xml:space="preserve">
<g>
	<polygon fill="#E4D6C4" points="47.174,58.428 47.174,44.926 2.497,31.666 	"/>
	<polygon fill="#D78A41" points="2.497,29.193 47.174,42.453 91.835,15.689 47.167,2.424 	"/>
	<polygon fill="#9C8E7D" points="47.174,44.926 47.174,58.428 91.836,31.664 91.836,18.164 	"/>
	<polygon fill="#C4793A" points="2.497,31.666 47.174,44.928 47.174,42.453 2.497,29.193 	"/>
	<polygon fill="#A25C25" points="47.174,42.453 47.174,44.926 91.836,18.164 91.836,15.689 	"/>
	<g>
		<path fill="#404040" d="M10.339,74.854c0.677,0.609,1.473,0.982,2.327,0.982c0.795,0,1.222-0.389,1.222-0.951
			c0-0.625-0.471-0.859-1.09-1.125L11.9,73.387c-1.046-0.406-1.973-1.047-1.973-2.279c0-1.453,1.163-2.42,2.856-2.42
			c1.193,0,2.076,0.5,2.695,1.029l-0.854,1.156c-0.53-0.438-1.178-0.766-1.87-0.766c-0.707,0-1.134,0.328-1.134,0.906
			c0,0.5,0.427,0.748,1.104,1.029l0.884,0.344c1.134,0.438,1.988,0.938,1.988,2.342c0,1.436-1.119,2.514-3.004,2.514
			c-1.237,0-2.341-0.484-3.107-1.172L10.339,74.854z"/>
		<path fill="#404040" d="M20.735,68.703c1.001,0,1.855,0.484,2.4,1.061l-0.927,1.094c-0.427-0.422-0.854-0.656-1.458-0.656
			c-1.251,0-2.165,1.031-2.165,2.748c0,1.795,0.825,2.793,2.105,2.793c0.707,0,1.222-0.295,1.649-0.748l0.928,1.061
			c-0.692,0.797-1.59,1.188-2.65,1.188c-2.091,0-3.77-1.453-3.77-4.23C16.848,70.295,18.6,68.703,20.735,68.703z"/>
		<path fill="#404040" d="M24.889,68.891h1.708v3.152h3.092v-3.152h1.708v8.164h-1.708v-3.451h-3.092v3.451h-1.708V68.891z"/>
		<path fill="#404040" d="M33.798,68.891h1.693v4.637c0,1.67,0.589,2.215,1.546,2.215s1.546-0.545,1.546-2.215v-4.637h1.62v4.574
			c0,2.73-1.192,3.777-3.18,3.777s-3.225-1.047-3.225-3.777V68.891z"/>
		<path fill="#404040" d="M42.604,68.891h1.708v8.164h-1.708V68.891z"/>
		<path fill="#404040" d="M46.757,68.891h1.723l2.312,4.184l0.869,1.842h0.059c-0.074-0.859-0.207-2.061-0.207-3.014v-3.012h1.561
			v8.164h-1.679l-2.356-4.184l-0.869-1.842h-0.059c0.088,0.889,0.221,2.045,0.221,2.996v3.029h-1.576V68.891z"/>
		<path fill="#404040" d="M58.553,68.891h2.282c2.503,0,4.138,1.232,4.138,4.043c0,2.824-1.634,4.121-4.035,4.121h-2.385V68.891z
			 M60.909,75.648c1.517,0,2.312-0.873,2.312-2.715c0-1.779-0.795-2.639-2.312-2.639h-0.648v5.354H60.909z"/>
		<path fill="#404040" d="M70.452,75.072h-2.621l-0.56,1.982h-1.723l2.621-8.164h1.988l2.621,8.164h-1.781L70.452,75.072z
			 M70.083,73.76l-0.25-0.889c-0.235-0.844-0.442-1.764-0.677-2.607h-0.059c-0.221,0.859-0.427,1.764-0.648,2.607l-0.25,0.889
			H70.083z"/>
		<path fill="#404040" d="M73.972,68.891h1.708v3.418h0.044l2.665-3.418h1.855l-2.503,3.246l2.901,4.918h-1.826l-2.062-3.668
			l-1.075,1.232v2.436h-1.708V68.891z"/>
	</g>
</g>
</svg>
