<?xml version="1.0" encoding="utf-8"?>
<!-- Generator: Adobe Illustrator 16.0.0, SVG Export Plug-In . SVG Version: 6.00 Build 0)  -->
<!DOCTYPE svg PUBLIC "-//W3C//DTD SVG 1.1//EN" "http://www.w3.org/Graphics/SVG/1.1/DTD/svg11.dtd">
<svg version="1.1" id="Layer_1" xmlns="http://www.w3.org/2000/svg" xmlns:xlink="http://www.w3.org/1999/xlink" x="0px" y="0px"
	 width="94.333px" height="79.666px" viewBox="0 0 94.333 79.666" enable-background="new 0 0 94.333 79.666" xml:space="preserve">
<g>
	<polygon fill="#E4D6C4" points="47.174,58.541 47.174,45.084 2.643,31.869 	"/>
	<polygon fill="#D78A41" points="2.643,29.402 47.174,42.619 91.689,15.943 47.167,2.723 	"/>
	<polygon fill="#9C8E7D" points="47.174,45.084 47.174,58.541 91.69,31.865 91.69,18.408 	"/>
	<polygon fill="#C4793A" points="2.643,31.867 47.174,45.084 47.174,42.619 2.643,29.402 	"/>
	<polygon fill="#A25C25" points="47.174,42.619 47.174,45.084 91.69,18.408 91.69,15.943 	"/>
	<g>
		<path fill="#404040" d="M21.341,68.779h2.886c1.796,0,3.195,0.641,3.195,2.607c0,1.904-1.428,2.715-3.195,2.715h-1.178v2.842
			h-1.708V68.779z M24.153,72.854c1.104,0,1.634-0.484,1.634-1.375c0-0.92-0.545-1.279-1.664-1.279h-1.075v2.654H24.153z"/>
		<path fill="#404040" d="M29.219,68.779h1.708v6.68h3.284v1.484h-4.992V68.779z"/>
		<path fill="#404040" d="M39.763,74.961h-2.621l-0.56,1.982H34.86l2.621-8.164h1.988l2.621,8.164h-1.782L39.763,74.961z
			 M39.395,73.648l-0.25-0.889c-0.235-0.844-0.442-1.764-0.677-2.607h-0.059c-0.221,0.859-0.427,1.764-0.648,2.607l-0.25,0.889
			H39.395z"/>
		<path fill="#404040" d="M44.24,70.262h-2.297v-1.482h6.288v1.482h-2.282v6.682H44.24V70.262z"/>
		<path fill="#404040" d="M52.855,68.779h2.282c2.503,0,4.138,1.232,4.138,4.043c0,2.824-1.634,4.121-4.035,4.121h-2.385V68.779z
			 M55.211,75.537c1.517,0,2.312-0.873,2.312-2.715c0-1.779-0.795-2.639-2.312-2.639h-0.648v5.354H55.211z"/>
		<path fill="#404040" d="M64.754,74.961h-2.621l-0.56,1.982h-1.723l2.621-8.164h1.988l2.621,8.164h-1.781L64.754,74.961z
			 M64.386,73.648l-0.25-0.889c-0.235-0.844-0.442-1.764-0.677-2.607h-0.059c-0.221,0.859-0.427,1.764-0.648,2.607l-0.25,0.889
			H64.386z"/>
		<path fill="#404040" d="M68.274,68.779h1.708v3.418h0.044l2.665-3.418h1.855l-2.503,3.246l2.901,4.918h-1.826l-2.062-3.668
			l-1.075,1.232v2.436h-1.708V68.779z"/>
	</g>
</g>
</svg>
